<?xml version="1.0" standalone="no"?><svg xmlns="http://www.w3.org/2000/svg" viewBox="0 0 1440 320"><path fill="#021e38" fill-opacity="1" d="M0,64L24,80C48,96,96,128,144,149.3C192,171,240,181,288,186.7C336,192,384,192,432,192C480,192,528,192,576,208C624,224,672,256,720,266.7C768,277,816,267,864,256C912,245,960,235,1008,213.3C1056,192,1104,160,1152,170.7C1200,181,1248,235,1296,261.3C1344,288,1392,288,1416,288L1440,288L1440,0L1416,0C1392,0,1344,0,1296,0C1248,0,1200,0,1152,0C1104,0,1056,0,1008,0C960,0,912,0,864,0C816,0,768,0,720,0C672,0,624,0,576,0C528,0,480,0,432,0C384,0,336,0,288,0C240,0,192,0,144,0C96,0,48,0,24,0L0,0Z"></path></svg>